<svg version="1.1" id="Layer_1" xmlns="http://www.w3.org/2000/svg" xmlns:xlink="http://www.w3.org/1999/xlink" x="0px" y="0px" viewBox="0 0 500 500" style="width: 144px;" xml:space="preserve" data-imageid="camera-1-53" imageName="Camera 1" class="illustrations_image">
<style type="text/css">
	.st0_camera-1-53{fill:#7D9B3D;}
	.st1_camera-1-53{fill:#68E1FD;}
	.st2_camera-1-53{fill:#F4F4F4;}
	.st3_camera-1-53{fill:#A34200;}
	.st4_camera-1-53{fill:#FFB001;}
	.st5_camera-1-53{opacity:0.5;fill:#A34200;enable-background:new    ;}
	.st6_camera-1-53{fill:#FF7F2E;}
	.st7_camera-1-53{fill:url(#SVGID_1_);}
	.st8_camera-1-53{fill:url(#SVGID_00000052069861192184665420000006165533021978408886_);}
	.st9_camera-1-53{fill:#FFE1D7;}
	.st10_camera-1-53{opacity:0.3;fill:#545454;enable-background:new    ;}
	.st11_camera-1-53{fill:#323234;}
	.st12_camera-1-53{fill:#545454;}
	.st13_camera-1-53{fill:url(#SVGID_00000074420300200737659360000007503597063174618270_);}
	.st14_camera-1-53{fill:#006837;}
</style>
<path id="field_camera-1-53" class="st0_camera-1-53" d="M30.6,313.1l203.5,117.2c10.8,6.2,24.1,6.3,34.9,0.1l201.5-114.4c7.2-4.2,9.7-13.4,5.6-20.6&#10;&#9;c-1.3-2.3-3.3-4.2-5.6-5.6L262.9,171.2c-12.7-7.3-28.3-7.2-41,0.2L30.5,283.1c-8.3,4.9-11,15.6-6.2,23.9&#10;&#9;C25.9,309.5,28,311.6,30.6,313.1z"/>
<g id="photo_camera-1-53">
	<polygon class="st1_camera-1-53 targetColor" points="47.2,215.5 114.2,178.8 114.2,64.9 47.2,103.6 &#9;" style="fill: rgb(104, 225, 253);"/>
	<polygon class="st2_camera-1-53" points="55,190.3 105.8,162.3 105.8,80.9 55,108.6 &#9;"/>
	<path class="st3_camera-1-53" d="M65.7,184.2c0,0-1.8-30.9,4.4-36.5s23.7-14.4,27-10.2s2.8,27.9,2.8,27.9"/>
	<path class="st4_camera-1-53" d="M78.2,134.3l0.7,8.6c2.6,0.4,5.3-0.5,7.1-2.6"/>
	<path class="st5_camera-1-53" d="M78.2,134.3l0.7,8.6c2.6,0.4,5.3-0.5,7.1-2.6"/>
	<path class="st4_camera-1-53" d="M91.1,121.6c0.2,0.6,2,17.9-5.2,18.7s-7-11.6-7.1-15.5S89.1,115,91.1,121.6z"/>
	<path class="st6_camera-1-53" d="M79.2,112.7l0.2-0.1c5.6-2.1,13.8-2.4,14.2,5.4c0.1,3.2-4.3,4.8-4.3,4.8c-1.9,1.3-4.3,2-6.6,1.9&#10;&#9;&#9;c-3.7-0.3-2.7,11-2.7,11c-0.8,2.3-1.2,4.8-1.2,7.3c0.2,3,7.3,0.5,5.3,6.9s-6.8,1.6-5.3,7.7s-0.2,7.6-3.1,8.4s-6-3.2-9.6-5.6&#10;&#9;&#9;c-1.4-1-1.8-3.5-2.1-5.1c-0.4-3.4-0.6-6.9-0.3-10.3c0.1-6.9,1.1-13.7,3-20.3C68.5,119,73.9,114.7,79.2,112.7z"/>
	<path class="st4_camera-1-53" d="M81.1,130.8c0,0-1.3-3.2-3.5-2.2s0,3.4,2.3,4.6"/>
</g>
<g id="camera_person_camera-1-53">
	<path class="st6_camera-1-53" d="M377.8,327.9c0,0,2.1,10.3-0.8,17.7h-7.6l1.3-16.7L377.8,327.9z"/>
	
		<linearGradient id="SVGID_1_-camera-1-53" gradientUnits="userSpaceOnUse" x1="292.1863" y1="-613.7161" x2="271.1763" y2="-573.8962" gradientTransform="matrix(1 0 0 1 0 896.12)">
		<stop offset="1.000000e-02" style="stop-color:#006837"/>
		<stop offset="1" style="stop-color:#7D9B3D"/>
	</linearGradient>
	<path class="st7_camera-1-53" d="M352.4,312.8c-0.9-0.5-1.7-1.1-2.4-1.8l-125-53.6l-53.3,29.9c0,0,112.2,70.1,155.1,88.2l50.4-30.5&#10;&#9;&#9;C373.7,331.2,364.7,319.6,352.4,312.8z"/>
	
		<linearGradient id="SVGID_00000126296195067228179870000010100191994619652771_-camera-1-53" gradientUnits="userSpaceOnUse" x1="202.3765" y1="-567.6719" x2="181.3765" y2="-527.8518" gradientTransform="matrix(1 0 0 1 0 896.12)">
		<stop offset="1.000000e-02" style="stop-color:#006837"/>
		<stop offset="1" style="stop-color:#7D9B3D"/>
	</linearGradient>
	<path style="fill:url(#SVGID_00000126296195067228179870000010100191994619652771_);" d="M129.4,300.4l-53.3,29.9&#10;&#9;&#9;c0,0,112.2,70.1,155.1,88.2l71.9-43.6"/>
	<path class="st6_camera-1-53" d="M277,320.8c0,0,1.9,4.8,0.8,8.7s-11.4,16.6-9.6,17.9s15.1-5.1,15.9-7.6c0.5-2.7,0.8-5.4,0.7-8.2l1.9,10.2&#10;&#9;&#9;l3.4-1l-0.9-21.4L277,320.8z"/>
	<path class="st6_camera-1-53" d="M304.3,353.5c0.7,0.3,1.3,9.1,0.6,12.2s-7.9,7.2-12.4,10.9s1.8-11.3,1.8-12.5s0.2-10.6,0.2-10.6&#10;&#9;&#9;S301,352.1,304.3,353.5z"/>
	<path class="st1_camera-1-53 targetColor" d="M309.8,246.9c0,0,12.8,44.3,2.6,106.7c0,0-15.7,6.6-27.6-1.6l1.9-28.2l-10.3-0.4c0,0-18.3-25.2-15.8-43.8&#10;&#9;&#9;s19.7-36.8,19.7-36.8L309.8,246.9" style="fill: rgb(104, 225, 253);"/>
	<path class="st4_camera-1-53" d="M288.2,201.2c0,0,18.4,19,21.5,45.7c0,0-13.7,5.4-30.4-3.8l0,0c0,0-8.6,3.8-16.8,1.7l0,0c0,0-3.8-8.3-7.7-10.2&#10;&#9;&#9;l0,0l19.5-4.4l-2.1-5.6l-39.9,2.9c0,0-8.2-9.2-4.4-16.6l0,0l46.9-5.4"/>
	<path class="st6_camera-1-53" d="M268.9,193.5L268.9,193.5c0,0-0.6-7.9,9.1-6.9c3.4-1.5,7.3-1.1,10.4,0.9c1.2,0.7,2.2,1.8,2.9,3&#10;&#9;&#9;c1.6,0.7,3.3,1.2,5.1,1.6c5.3,0.5,11-1.8,15.9-3.3c1.6-0.5,3.3-0.9,5-1.2c1.4-0.4,2.9-0.5,4.4-0.5c0.5,0,1,0.1,1.5,0.1&#10;&#9;&#9;c3.3,0.1,6.5,1.4,8.9,3.6c4.2,4.1,4.2,10.8,0.1,14.9c-0.7,0.7-1.4,1.2-2.2,1.7c-3.2,1.6-6.8,2.2-10.4,1.9c-3.5-0.1-7-0.8-10.3-1.9&#10;&#9;&#9;c-6.2-2.1-11.7-5.8-16-10.7c0.3,2.5-0.2,5-1.3,7.3c-2.2,3.4-7,4.2-7,4.2l-14.7-12.4c-2.4-0.3-4.2-2.2-4.4-4.6&#10;&#9;&#9;C265.7,191.3,267.6,193.4,268.9,193.5z"/>
	<path class="st9_camera-1-53" d="M279.9,190.8c3.2,0.7,5,3.7,5.6,7.3c0.7-0.9,2-1,2.9-0.2c0.1,0.1,0.2,0.2,0.3,0.3c0.5,1.1,0.3,2.4-0.6,3.3&#10;&#9;&#9;c-0.6,0.7-1.4,1.3-2.3,1.7c-0.4,4.5-2.3,8.6-5,8.6c-6.1,0.1-9.2-13.2-10.9-14.4C269.4,192.9,271.2,189.1,279.9,190.8z"/>
	<path class="st6_camera-1-53" d="M291.8,190.6c0.4,0,0.8,0.1,1.1,0.3c2.1,0.8,3.5,3.8,3.3,5.8c-0.1,1.2-0.8,2.5-2.2,2.3s-2.2-1.6-2.9-2.5&#10;&#9;&#9;c-0.8-1-1.2-2.2-1.2-3.5C289.9,191.9,290.5,190.6,291.8,190.6z"/>
	<path class="st6_camera-1-53" d="M272.8,191.3c1.5-0.6,3.2,0.1,3.8,1.5c0,0,0,0,0,0v0.1c1.5,2.8-0.6,5.6,2.1,7s5,1.8,6.7-1.8s-3.9-9.9-7.8-9.4&#10;&#9;&#9;S272.8,191.3,272.8,191.3"/>
	<path class="st1_camera-1-53 targetColor" d="M286.7,276.2c-0.1-4.7-0.1-9.3-0.2-14c0-1.1,1.2-1.1,1.2,0c0.4,16.5,0.4,32.9,0.3,49.4&#10;&#9;&#9;c-0.1,4.7-0.1,9.3-0.2,14c0,1.1-1.2,1.1-1.2,0C286.8,309.1,286.9,292.7,286.7,276.2z" style="fill: rgb(104, 225, 253);"/>
	<path class="st6_camera-1-53" d="M309.4,352c0.1,1,0,10.3,0,10.3s-2.9,2.2-2.7,1.5s-2.3-11.6-2.3-11.6L309.4,352z"/>
	<path class="st2_camera-1-53" d="M305.9,369.2v-76.5c0-10.7-5.7-20.6-14.9-26l-132.7-78.2c-3.5-2.1-8.1-0.9-10.2,2.6c-0.7,1.1-1,2.5-1,3.8v96&#10;&#9;&#9;l147.8,84.8c3.5,2,8,0.8,10-2.8C305.6,371.8,305.9,370.6,305.9,369.2L305.9,369.2z"/>
	<path class="st2_camera-1-53" d="M225,355.7c3.4,0.5,6.6,2.2,8.9,4.8c11.2,12,24.4,21.8,37.2,32l32.1-17.6L221.7,275l-71.4-86.2l-26.3,14.4&#10;&#9;&#9;c0,18.9-0.1,37.9,1.1,56.8l54.4,67.2c2.2,0.4,4.3,1.3,6.2,2.6c11.5,7.7,22.5,16.1,33,25.1C220.9,354.7,223,355,225,355.7z"/>
	<path class="st2_camera-1-53" d="M277.5,384.6V308c0-10.7-5.7-20.6-14.9-26L130,203.8c-3.5-2.1-8.1-0.9-10.2,2.6c-0.7,1.1-1,2.5-1,3.8v96&#10;&#9;&#9;L266.6,391c3.5,2,8,0.8,10-2.7C277.3,387.1,277.6,385.9,277.5,384.6L277.5,384.6z"/>
	<path class="st10_camera-1-53" d="M277.5,384.6V308c0-10.7-5.7-20.6-14.9-26L130,203.8c-3.5-2.1-8.1-0.9-10.2,2.6c-0.7,1.1-1,2.5-1,3.8v96&#10;&#9;&#9;L266.6,391c3.5,2,8,0.8,10-2.7C277.3,387.1,277.6,385.9,277.5,384.6L277.5,384.6z"/>
	<polygon class="st11_camera-1-53" points="250,253.5 238.9,259.9 226.5,252.7 237.5,246.5 &#9;"/>
	<polyline class="st11_camera-1-53" points="226.5,252.7 226.5,246.4 250,247.2 250,253.5 &#9;"/>
	<polygon class="st12_camera-1-53" points="250,247.2 238.9,253.6 226.5,246.4 237.5,240.2 &#9;"/>
	<ellipse class="st11_camera-1-53" cx="269" cy="269" rx="14.2" ry="7.5"/>
	<polyline class="st11_camera-1-53" points="283.2,269 283.2,262.9 254.8,262.9 254.8,269 &#9;"/>
	<ellipse class="st12_camera-1-53" cx="269" cy="262.9" rx="14.2" ry="7.5"/>
	<polygon class="st11_camera-1-53" points="305.9,296.9 277.5,311.5 118.9,220 118.8,276.1 277.6,367 305.9,352.4 &#9;"/>
	<polygon class="st12_camera-1-53" points="305.9,296.9 277.5,311.5 277.6,367 305.9,352.4 &#9;"/>
	<polyline class="st12_camera-1-53" points="130.8,251.3 141.3,245.2 181.1,312.2 169.8,318.8 &#9;"/>
	<ellipse transform="matrix(0.866 -0.5 0.5 0.866 -117.9665 117.7898)" class="st12_camera-1-53" cx="160.8" cy="279" rx="22.9" ry="39"/>
	<ellipse transform="matrix(0.866 -0.5 0.5 0.866 -122.4027 113.3498)" class="st11_camera-1-53" cx="150.3" cy="285.1" rx="22.9" ry="39"/>
	<polyline class="st12_camera-1-53" points="119.1,269.8 138.9,258.8 166.8,307 147.2,318.5 &#9;"/>
	<ellipse transform="matrix(0.866 -0.5 0.5 0.866 -122.1185 113.2358)" class="st12_camera-1-53" cx="150.2" cy="284.5" rx="16.5" ry="28.1"/>
	<ellipse transform="matrix(0.866 -0.5 0.5 0.866 -129.219 105.989)" class="st11_camera-1-53" cx="133.2" cy="294.1" rx="16.5" ry="28.1"/>
	<ellipse transform="matrix(0.866 -0.5 0.5 0.866 -129.3329 106.0221)" class="st1_camera-1-53 targetColor" cx="133.2" cy="294.3" rx="12" ry="20.5" style="fill: rgb(104, 225, 253);"/>
	<ellipse transform="matrix(0.9634 -0.2679 0.2679 0.9634 -68.6836 80.5533)" class="st3_camera-1-53" cx="260.8" cy="292" rx="3.1" ry="5"/>
	<path class="st6_camera-1-53" d="M357.2,314.4c-17.5-8.1-29.3-13.2-37.1-16.4c0,1.4-0.1,2.7-0.2,4c0,2-0.1,4.1-0.4,6.1&#10;&#9;&#9;c14,5.4,33.4,13.6,44.4,21.8c2.4,1.8,4.5,3.4,6.2,4.9C381.4,334.9,385.2,327.3,357.2,314.4z"/>
	<path class="st6_camera-1-53" d="M373.3,334.6c-6.8-0.2-16.5-2-22.3-5.6c-8.7-5.5-12.8-5.4-16.7-4.4c-8.5,4.3-18.5,4.3-27.1,0.1&#10;&#9;&#9;c-8.6-4.1-13.3-11.8-15-20.8l-10.6,5.5c0,0,1.2,24.5,20.5,31.5s25.7-7.1,39.2-2.6s18.8,13,28.9,10.9&#10;&#9;&#9;C378.9,347.3,379.7,342.9,373.3,334.6z"/>
	<path class="st3_camera-1-53" d="M357.2,314.4c-17.5-8.1-33.2-15.1-41-18.4c0,1.4,0.1,4,0,5.3c0.1,1.9,0.1,3.9,0,5.8&#10;&#9;&#9;c14,5.4,36.8,14.6,47.7,22.8c1.9,1.5,3.5,2.7,5,3.9c1.1,0.2,2.1,0.5,3.1,0.9C381.7,333.9,383.5,326.5,357.2,314.4z"/>
	<path class="st9_camera-1-53" d="M257.9,236.6c-2.7,0.1-4.9,0.2-5,0.2c-1.5-0.4-3-0.9-4.5-1.5c-1-0.4-2.6-1.4-3.4-0.2s0.4,2.2,1.4,2.6h0.1&#10;&#9;&#9;c-1.4,0.2-2.9,0.5-4.4,0.8s-5.5,0.9-5.7,2.6c0,0.4,0.6,0.9,1,1c1.8,0,3.6-0.2,5.4-0.6h0.6c-0.3,1.2-0.4,2.4-0.3,3.7&#10;&#9;&#9;c0,0.8,0.4,1.4,1.1,1.8c0.6,0.3,1.3,0.4,2,0.4c0.6,1,1.7,1.4,2.8,1.2c0.2,0,0.3-0.1,0.5-0.2c0.3,0.3,0.7,0.5,1.1,0.5&#10;&#9;&#9;c0.8,0.2,1.6,0.1,2.4-0.3c0.6-0.6,0.6-1.6,0.7-2.4c3-0.2,6.7,0.5,8.6-2.5c-0.9-1.7-1.8-3.3-2.8-4.8&#10;&#9;&#9;C259,238,258.5,237.3,257.9,236.6z"/>
	<path class="st3_camera-1-53" d="M262.4,243.6c-0.9,0.9-2.1,1.5-3.4,1.8c-1.6,0.6-3.3,0.7-4.9,0.3l0,0c0-0.3,0-0.5,0-0.8c0-0.5-0.9-0.5-0.8,0&#10;&#9;&#9;c0.1,0.7,0,1.5-0.3,2.2c-0.1,0.3-0.2,0.6-0.4,0.9c-0.3,0.4-0.8,0.6-1.2,0.6c-0.5,0-0.5,0.8,0,0.8c0.8,0,1.6-0.4,2-1.2&#10;&#9;&#9;c0.3-0.6,0.4-1.1,0.6-1.7c1.8,0.4,3.6,0.2,5.3-0.4c1.3-0.3,2.5-0.9,3.5-1.8C262.6,244.1,262.5,243.8,262.4,243.6z"/>
	<path class="st3_camera-1-53" d="M249.7,243.5c0.1,1.5,0.2,2.9,0.3,4.4c0,0.2-0.2,0.4-0.5,0.3c-0.2,0-0.3-0.2-0.3-0.3c-0.1-1.5-0.3-2.9-0.3-4.4&#10;&#9;&#9;C248.9,243,249.7,243,249.7,243.5z"/>
	<path class="st3_camera-1-53" d="M246.1,242.5l0.2,4.6c0,0.2-0.2,0.4-0.4,0.4c-0.2,0-0.4-0.2-0.4-0.4l-0.2-4.6c0-0.2,0.2-0.4,0.4-0.4&#10;&#9;&#9;C245.9,242.1,246.1,242.3,246.1,242.5z"/>
	<path class="st9_camera-1-53" d="M227.4,217.6c-3.5,0.4-7,0.8-10.5,1.2c-3,0.4-6.2,0.5-9.1,1.7c-0.4,0.2-0.7,0.6-0.7,1&#10;&#9;&#9;c-0.2,0.5-0.1,1.1,0.3,1.5l-1.1,0.3c-0.8,0.3-1.2,1.1-0.9,1.9c0.2,0.7,1,1.1,1.7,1l0.5-0.1l-1.6,0.6c-1.7,0.7-1,3.5,0.8,2.8&#10;&#9;&#9;l1.3-0.5c-0.1,0.7,0.4,1.4,1.1,1.5c0,0,0,0,0,0c0.2,0,0.4,0,0.6-0.1c3.5-1.2,7.1-2.2,10.6-3.2c-1,1.4-2,2.9-2.9,4.4&#10;&#9;&#9;c-0.4,0.6-0.3,1.4,0.3,1.8c0,0,0,0,0,0c0.1,0,0.1,0.1,0.2,0.1c0.1,0.3,0.5,0.5,0.8,0.4c2-0.6,3.6-2,4.6-3.9c0.6-1,1.1-2,1.8-2.9&#10;&#9;&#9;c0.2-0.2,0.5-0.5,0.8-0.7c0.1-0.1,0.1-0.2,0.2-0.3c0.2-0.2,0.4-0.3,0.6-0.4c0.2-0.1,0.5-0.2,0.7-0.4l3.1-0.7&#10;&#9;&#9;C228.8,222.6,227.7,220.2,227.4,217.6z"/>
	<path class="st3_camera-1-53" d="M213.8,221.4c-2.1,0.2-4.2,0.5-6.2,0.9c-0.6,0.1-0.4,1.1,0.3,0.9c2-0.4,4-0.7,6-0.8&#10;&#9;&#9;C214.3,222.3,214.3,221.3,213.8,221.4z"/>
	<path class="st3_camera-1-53" d="M214.4,224.2c-2.4,0.3-4.8,0.7-7.1,1.3c-0.7,0.2-0.4,1.1,0.4,0.9c2.3-0.5,4.5-0.9,6.9-1.2&#10;&#9;&#9;C215.2,225.1,215.2,224.1,214.4,224.2z"/>
	<path class="st5_camera-1-53" d="M279.4,243.1c3.5-0.6,6.9-2.1,9.6-4.4c4.4-3.8,4.1-16.1,4.1-16.1s1.6,16-0.8,19.6s-7.1,2.8-7.6,2.7&#10;&#9;&#9;L279.4,243.1z"/>
</g>
<g id="plant_camera-1-53">
	
		<linearGradient id="SVGID_00000102537526629922491130000013100524102765770629_-camera-1-53" gradientUnits="userSpaceOnUse" x1="429.6788" y1="-601.8359" x2="413.5288" y2="-571.2359" gradientTransform="matrix(1 0 0 1 0 896.12)">
		<stop offset="1.000000e-02" style="stop-color:#006837"/>
		<stop offset="1" style="stop-color:#7D9B3D"/>
	</linearGradient>
	<path style="fill:url(#SVGID_00000102537526629922491130000013100524102765770629_);" d="M428.7,327.2c8.4-5.4,17.1-10.2,25.9-15&#10;&#9;&#9;l-32.5-13.9l-41,22.9c0,0,12,7.5,28.7,17.6C416,334.8,422.5,331.2,428.7,327.2z"/>
	<path class="st1_camera-1-53 targetColor" d="M439.8,278.9c-7.5-0.6-15.4-2.9-20.9-8v22.2c0,12.7,10.3,23.1,23.1,23.1l0,0l0,0c12.7,0,23.1-10.3,23.1-23.1&#10;&#9;&#9;v-22.6C457.1,273.7,448.2,279.6,439.8,278.9z" style="fill: rgb(104, 225, 253);"/>
	<ellipse class="st14_camera-1-53" cx="441.9" cy="270.7" rx="23.1" ry="12.2"/>
	<path class="st14_camera-1-53" d="M441.9,272.8c0,0-15.7-2.3-19.8-27.6C422.1,245.1,435.5,252.5,441.9,272.8z"/>
	<path class="st14_camera-1-53" d="M444.2,269.6c0,0-18-32.3,0-54C449.7,233.1,449.7,252,444.2,269.6z"/>
	<path class="st14_camera-1-53" d="M441.9,249.3c0,0-15.7-2.3-19.8-27.6C422.1,221.6,435.5,229,441.9,249.3z"/>
	<path class="st14_camera-1-53" d="M443.8,259.6c0,0-3.9-15.4,17.9-29C461.7,230.6,460,245.8,443.8,259.6z"/>
	<ellipse class="st3_camera-1-53" cx="441.9" cy="270.7" rx="23.1" ry="12.2"/>
	<path class="st14_camera-1-53" d="M441.9,272.8c0,0-15.7-2.3-19.8-27.6C422.1,245.1,435.5,252.5,441.9,272.8z"/>
	<path class="st14_camera-1-53" d="M444.2,269.6c0,0-18-32.3,0-54C449.7,233.1,449.7,252,444.2,269.6z"/>
	<path class="st14_camera-1-53" d="M441.9,249.3c0,0-15.7-2.3-19.8-27.6C422.1,221.6,435.5,229,441.9,249.3z"/>
	<path class="st14_camera-1-53" d="M443.8,259.6c0,0-3.9-15.4,17.9-29C461.7,230.6,460,245.8,443.8,259.6z"/>
</g>
</svg>